 http://www.shotpix.com/images/28677356544636853791.jpg
 
http://www.imdb.com/title/tt2034009/

 
http://www.shotpix.com/images/89310304753017454169.png

Format                                   : AVI
Format/Info                              : Audio Video Interleave
File size                                : 696 MiB
Duration                                 : 1h 23mn
Overall bit rate                         : 1 160 Kbps

Video
ID                                       : 0
Format                                   : MPEG-4 Visual
Format profile                           : Simple@L3
Format settings, BVOP                    : No
Format settings, QPel                    : No
Format settings, GMC                     : No warppoints
Format settings, Matrix                  : Default (H.263)
Codec ID                                 : XVID
Codec ID/Hint                            : XviD
Duration                                 : 1h 23mn
Source duration                          : 1h 23mn
Bit rate                                 : 1 019 Kbps
Width                                    : 624 pixels
Height                                   : 352 pixels
Display aspect ratio                     : 16:9
Frame rate                               : 25.000 fps
Color space                              : YUV
Chroma subsampling                       : 4:2:0
Bit depth                                : 8 bits
Scan type                                : Progressive
Compression mode                         : Lossy
Bits/(Pixel*Frame)                       : 0.186
Stream size                              : 612 MiB (88%)
Writing library                          : XviD 1.1.2 (UTC 2006-11-01)

Audio
ID                                       : 1
Format                                   : MPEG Audio
Format version                           : Version 1
Format profile                           : Layer 3
Mode                                     : Joint stereo
Mode extension                           : MS Stereo
Codec ID                                 : 55
Codec ID/Hint                            : MP3
Duration                                 : 1h 23mn
Bit rate mode                            : Constant
Bit rate                                 : 128 Kbps
Channel(s)                               : 2 channels
Sampling rate                            : 48.0 KHz
Compression mode                         : Lossy
Stream size                              : 76.8 MiB (11%)
Alignment                                : Split accross interleaves
Interleave, duration                     : 24 ms (0.60 video frame)
Writing library                          : LAME3.98




A New England private school is visited by a demonic dead headmaster. 



Director: 
Jeffery Scott Lando

 Writers: 
Anthony C. Ferrante (story), Paul A. Birkett
 
Stars:
 M.C. Gainey, Lauren Pennington and Shawn C. Phillips


Country:
USA 

Language:
English 

Genres:
 Horror | Sci-Fi

 
http://www.shotpix.com/images/90191950021786662776.png 
http://www.shotpix.com/images/38864567159773824585.png 
http://www.shotpix.com/images/14616333967435872758.png 
http://www.shotpix.com/images/79404843375280401191.png